<?xml version="1.0" encoding="UTF-8" standalone="no"?>
<!DOCTYPE svg PUBLIC "-//W3C//DTD SVG 1.1//EN"
 "http://www.w3.org/Graphics/SVG/1.1/DTD/svg11.dtd">
<!-- Generated by graphviz version 2.40.1 (20161225.0304)
 -->
<!-- Title: RNAseq_pipeline Pages: 1 -->
<svg width="912pt" height="44pt"
 viewBox="0.00 0.00 912.39 44.00" xmlns="http://www.w3.org/2000/svg" xmlns:xlink="http://www.w3.org/1999/xlink">
<g id="graph0" class="graph" transform="scale(1 1) rotate(0) translate(4 40)">
<title>RNAseq_pipeline</title>
<polygon fill="#ffffff" stroke="transparent" points="-4,4 -4,-40 908.3926,-40 908.3926,4 -4,4"/>
<!-- FASTQ -->
<g id="node1" class="node">
<title>FASTQ</title>
<polygon fill="#add8e6" stroke="#add8e6" points="96.1831,-36 -.0611,-36 -.0611,0 96.1831,0 96.1831,-36"/>
<text text-anchor="middle" x="48.061" y="-13.8" font-family="Helvetica,sans-Serif" font-size="14.00" fill="#000000">FASTQ Data</text>
</g>
<!-- FastQC -->
<g id="node2" class="node">
<title>FastQC</title>
<polygon fill="#add8e6" stroke="#add8e6" points="196.4569,-36 132.0101,-36 132.0101,0 196.4569,0 196.4569,-36"/>
<text text-anchor="middle" x="164.2335" y="-13.8" font-family="Helvetica,sans-Serif" font-size="14.00" fill="#000000">FastQC</text>
</g>
<!-- FASTQ&#45;&gt;FastQC -->
<g id="edge1" class="edge">
<title>FASTQ&#45;&gt;FastQC</title>
<path fill="none" stroke="#000000" d="M96.3193,-18C104.7353,-18 113.4347,-18 121.6831,-18"/>
<polygon fill="#000000" stroke="#000000" points="121.8344,-21.5001 131.8344,-18 121.8343,-14.5001 121.8344,-21.5001"/>
</g>
<!-- Trimming -->
<g id="node3" class="node">
<title>Trimming</title>
<polygon fill="#add8e6" stroke="#add8e6" points="306.8149,-36 232.1879,-36 232.1879,0 306.8149,0 306.8149,-36"/>
<text text-anchor="middle" x="269.5014" y="-13.8" font-family="Helvetica,sans-Serif" font-size="14.00" fill="#000000">Trimming</text>
</g>
<!-- FastQC&#45;&gt;Trimming -->
<g id="edge2" class="edge">
<title>FastQC&#45;&gt;Trimming</title>
<path fill="none" stroke="#000000" d="M196.3893,-11.7263C204.4726,-11.3312 213.3192,-11.182 221.9795,-11.2784"/>
<polygon fill="#000000" stroke="#000000" points="221.927,-14.778 232.0034,-11.5044 222.0849,-7.7798 221.927,-14.778"/>
</g>
<!-- Trimming&#45;&gt;FastQC -->
<g id="edge3" class="edge">
<title>Trimming&#45;&gt;FastQC</title>
<path fill="none" stroke="#000000" stroke-dasharray="5,2" d="M232.0034,-24.4956C223.7253,-24.7811 214.9014,-24.8263 206.4506,-24.6311"/>
<polygon fill="#000000" stroke="#000000" points="206.5073,-21.131 196.3893,-24.2737 206.2588,-28.1266 206.5073,-21.131"/>
</g>
<!-- Alignment -->
<g id="node4" class="node">
<title>Alignment</title>
<polygon fill="#add8e6" stroke="#add8e6" points="421.0052,-36 342.5418,-36 342.5418,0 421.0052,0 421.0052,-36"/>
<text text-anchor="middle" x="381.7735" y="-13.8" font-family="Helvetica,sans-Serif" font-size="14.00" fill="#000000">Alignment</text>
</g>
<!-- Trimming&#45;&gt;Alignment -->
<g id="edge4" class="edge">
<title>Trimming&#45;&gt;Alignment</title>
<path fill="none" stroke="#000000" d="M306.8864,-18C315.0494,-18 323.8101,-18 332.3597,-18"/>
<polygon fill="#000000" stroke="#000000" points="332.6293,-21.5001 342.6293,-18 332.6293,-14.5001 332.6293,-21.5001"/>
</g>
<!-- FeatureCounts -->
<g id="node5" class="node">
<title>FeatureCounts</title>
<polygon fill="#add8e6" stroke="#add8e6" points="565.2588,-36 457.0988,-36 457.0988,0 565.2588,0 565.2588,-36"/>
<text text-anchor="middle" x="511.1788" y="-13.8" font-family="Helvetica,sans-Serif" font-size="14.00" fill="#000000">FeatureCounts</text>
</g>
<!-- Alignment&#45;&gt;FeatureCounts -->
<g id="edge5" class="edge">
<title>Alignment&#45;&gt;FeatureCounts</title>
<path fill="none" stroke="#000000" d="M420.9505,-18C429.0776,-18 437.8445,-18 446.6081,-18"/>
<polygon fill="#000000" stroke="#000000" points="446.8559,-21.5001 456.8559,-18 446.8559,-14.5001 446.8559,-21.5001"/>
</g>
<!-- DESeq2 -->
<g id="node6" class="node">
<title>DESeq2</title>
<polygon fill="#add8e6" stroke="#add8e6" points="725.6683,-36 601.4017,-36 601.4017,0 725.6683,0 725.6683,-36"/>
<text text-anchor="middle" x="663.535" y="-13.8" font-family="Helvetica,sans-Serif" font-size="14.00" fill="#000000">DESeq2 Analysis</text>
</g>
<!-- FeatureCounts&#45;&gt;DESeq2 -->
<g id="edge6" class="edge">
<title>FeatureCounts&#45;&gt;DESeq2</title>
<path fill="none" stroke="#000000" d="M565.3229,-18C573.6835,-18 582.4315,-18 591.1143,-18"/>
<polygon fill="#000000" stroke="#000000" points="591.25,-21.5001 601.25,-18 591.2499,-14.5001 591.25,-21.5001"/>
</g>
<!-- Enrichment -->
<g id="node7" class="node">
<title>Enrichment</title>
<polygon fill="#add8e6" stroke="#add8e6" points="904.2883,-36 761.7059,-36 761.7059,0 904.2883,0 904.2883,-36"/>
<text text-anchor="middle" x="832.9971" y="-13.8" font-family="Helvetica,sans-Serif" font-size="14.00" fill="#000000">Enrichment Analysis</text>
</g>
<!-- DESeq2&#45;&gt;Enrichment -->
<g id="edge7" class="edge">
<title>DESeq2&#45;&gt;Enrichment</title>
<path fill="none" stroke="#000000" d="M725.6742,-18C734.0931,-18 742.833,-18 751.5271,-18"/>
<polygon fill="#000000" stroke="#000000" points="751.6901,-21.5001 761.6901,-18 751.6901,-14.5001 751.6901,-21.5001"/>
</g>
</g>
</svg>

